#!OML:ASF E:\acrobat2\Project_11_07_03\Capture day 1\Session 1\Acrobat.ASF
:FULLY-SPECIFIED
:DEGREES
705
root 13.0624 18.0782 27.9302 0.985762 -11.5228 2.63403
lowerback -4.15679 2.73051 -1.33007
upperback 0.597543 3.84816 -4.70515
thorax 3.18716 1.93736 -3.8506
lowerneck 3.44885 0.252718 -1.09194
upperneck 7.98229 0.896287 -9.90195
head 1.99868 0.227775 -3.01649
rclavicle 3.40419e-015 4.77083e-015
rhumerus -34.9495 0.0236366 -85.0127
rradius 30.5442
rwrist 3.64723
rhand 2.07162 -46.368
rfingers 7.12502
rthumb 27.5731 -74.3682
lclavicle 3.40419e-015 4.77083e-015
lhumerus -36.054 -12.2439 86.105
lradius 16.8755
lwrist 7.43865
lhand -5.92231 -6.85148
lfingers 7.12502
lthumb 19.907 22.1489
rfemur -7.65417 -5.97178 6.70255
rtibia 54.5148
rfoot 2.0104 -6.97961
rtoes 11.4195
lfemur -3.65713 6.50378 -18.0509
ltibia 1.67779
lfoot -7.7655 7.61801
ltoes 35.9686
706
root 13.0745 18.0862 28.042 0.890802 -11.5809 2.60353
lowerback -4.02157 2.64113 -1.31924
upperback 0.697417 3.7273 -4.6998
thorax 3.20749 1.87794 -3.864
lowerneck 3.61016 0.4086 -1.09428
upperneck 7.3728 1.05035 -10.0496
head 1.77987 0.329049 -3.05674
rclavicle 3.27249e-014 3.18055e-015
rhumerus -35.3371 0.449562 -85.5424
rradius 30.2233
rwrist 4.29567
rhand 2.38699 -46.254
rfingers 7.12502
rthumb 27.8746 -74.2057
lclavicle 3.27249e-014 3.18055e-015
lhumerus -35.077 -12.9326 86.0546
lradius 16.9525
lwrist 7.52856
lhand -6.75061 -7.11289
lfingers 7.12502
lthumb 19.1107 21.9682
rfemur -8.49201 -6.44453 6.66733
rtibia 55.2297
rfoot 0.828622 -7.42842
rtoes 11.8595
lfemur -3.17739 6.26224 -18.1264
ltibia 1.73568
lfoot -8.15843 7.51249
ltoes 35.5521
707
root 13.085 18.0948 28.1539 0.810643 -11.6112 2.51036
lowerback -3.91488 2.55684 -1.2634
upperback 0.799186 3.61145 -4.66309
thorax 3.24675 1.82164 -3.86805
lowerneck 3.65625 0.511238 -1.01741
upperneck 6.9036 1.15581 -10.2915
head 1.62795 0.399092 -3.14814
rclavicle -1.37161e-014 3.65764e-014
rhumerus -35.7658 0.875748 -86.0441
rradius 29.9391
rwrist 4.94355
rhand 2.62828 -46.1881
rfingers 7.12502
rthumb 28.1053 -74.1022
lclavicle -1.37161e-014 3.65764e-014
lhumerus -34.0442 -13.6242 85.9807
lradius 16.9837
lwrist 7.52798
lhand -7.52852 -7.28427
lfingers 7.12502
lthumb 18.3624 21.869
rfemur -9.2767 -6.89106 6.73748
rtibia 55.7472
rfoot -0.351077 -7.84622
rtoes 12.1442
lfemur -2.69669 5.95371 -18.1433
ltibia 1.77949
lfoot -8.5694 7.46928
ltoes 34.8587
708
root 13.0937 18.1042 28.2659 0.75318 -11.603 2.40007
lowerback -3.84634 2.46972 -1.21058
upperback 0.893145 3.49272 -4.61134
thorax 3.29796 1.76363 -3.8533
lowerneck 3.73157 0.598877 -0.945598
upperneck 6.4751 1.24151 -10.5247
head 1.48366 0.459139 -3.23723
rclavicle 9.29318e-015 -9.54166e-015
rhumerus -36.2352 1.28888 -86.5253
rradius 29.6862
rwrist 5.56339
rhand 2.79607 -46.1756
rfingers 7.12502
rthumb 28.2657 -74.0632
lclavicle 9.29318e-015 -9.54166e-015
lhumerus -32.968 -14.3082 85.8724
lradius 16.9775
lwrist 7.46373
lhand -8.23757 -7.38252
lfingers 7.12502
lthumb 17.6802 21.8337
rfemur -10.0265 -7.34337 6.86106
rtibia 56.0875
rfoot -1.52783 -8.20791
rtoes 12.1284
lfemur -2.24081 5.61513 -18.1547
ltibia 1.82186
lfoot -8.98 7.44415
ltoes 34.1108
709
root 13.1007 18.1144 28.3771 0.723043 -11.5318 2.30292
lowerback -3.81041 2.36676 -1.19291
upperback 0.974165 3.35506 -4.55701
thorax 3.35078 1.69532 -3.81629
lowerneck 3.79658 0.669838 -0.883949
upperneck 6.107 1.30767 -10.7157
head 1.35956 0.507557 -3.3114
rclavicle 1.49089e-015 1.74931e-014
rhumerus -36.7405 1.6821 -86.9892
rradius 29.4648
rwrist 6.12941
rhand 2.92521 -46.1875
rfingers 7.12502
rthumb 28.3891 -74.0547
lclavicle 1.49089e-015 1.74931e-014
lhumerus -31.843 -14.9396 85.7004
lradius 16.9362
lwrist 7.3356
lhand -8.86123 -7.4431
lfingers 7.12502
lthumb 17.08 21.8261
rfemur -10.7469 -7.81425 7.00301
rtibia 56.2483
rfoot -2.71364 -8.50888
rtoes 11.8948
lfemur -1.83873 5.29483 -18.1929
ltibia 1.88947
lfoot -9.3527 7.36291
ltoes 33.5265
